<?xml version="1.0" encoding="utf-8"?>
<!-- Generator: Adobe Illustrator 19.2.1, SVG Export Plug-In . SVG Version: 6.00 Build 0)  -->
<svg version="1.1" id="Layer_1" xmlns="http://www.w3.org/2000/svg" xmlns:xlink="http://www.w3.org/1999/xlink" x="0px" y="0px"
	 viewBox="0 0 32 32" style="enable-background:new 0 0 32 32;" xml:space="preserve">
<style type="text/css">
	.st0{fill:#62798C;}
	.st1{fill:#F6BB00;}
	.st2{fill:#DE9400;}
	.st3{fill:#639AFF;}
	.st4{fill:#415769;}
	.st5{fill:#556C80;}
</style>
<g>
	<g>
		<path class="st0" d="M11.7,0.3c2.9,0,5.8,0,8.7,0c0.3,1.1,0.6,2.2,0.9,3.3l0,0c-0.1,0.1-0.2,0.1-0.3,0.3c-0.1,0.3-0.2,0.7-0.3,1
			C20,6.5,18.7,8,17.1,8.9c0-0.2,0-0.3,0-0.5c-0.7,0-1.4,0-2.2,0c0,0.2,0,0.3,0,0.5c-1.8-1-3.2-2.7-3.7-4.6
			c-0.1-0.3-0.1-0.6-0.4-0.7l0,0C11,2.5,11.4,1.4,11.7,0.3z"/>
		<path class="st0" d="M6.6,6.8C7.7,6,8.9,5.2,10.1,4.4c0.6,2.1,1.9,4,3.8,5.1c0.3,0.2,0.7,0.4,1,0.5c0,0.3,0,0.5,0,0.8
			c-0.9,0.5-1.4,1.4-1.7,2.3c-0.5,1.5-0.6,3.1-0.2,4.6c0.3,0.9,0.7,1.9,1.5,2.5c0.5,0.4,1.2,0.7,1.9,0.6c0.7-0.1,1.4-0.6,1.8-1.2
			c0.6-0.9,1-2,1.1-3.1c0.1-1.3,0-2.7-0.6-3.9c-0.3-0.7-0.8-1.4-1.5-1.8c0-0.3,0-0.5,0-0.8c0.5-0.1,0.9-0.4,1.3-0.7
			c1.7-1.2,3-3,3.5-5c1.2,0.8,2.4,1.6,3.6,2.4c1.1,0.7,1.9,1.9,2.3,3.2c0.4,1.6,0,3.5-1,4.8c-2.7,3.3-5.3,6.6-8,9.9
			c-0.5,0-1.1,0-1.6,0c-0.7,0-1.4,0-2.2,0c-0.5,0-1.1,0-1.6,0c-2.7-3.3-5.3-6.6-8-9.8c-0.8-1-1.3-2.2-1.2-3.5C4.1,9.5,5,7.7,6.6,6.8
			z"/>
	</g>
	<g>
		<path class="st1" d="M10.1,3.9c0.1-0.3,0.4-0.4,0.7-0.3c0.3,0.1,0.3,0.4,0.4,0.7c0.6,2,1.9,3.7,3.7,4.6c0,0.4,0,0.8,0,1.2
			c-0.4-0.1-0.7-0.3-1-0.5c-1.8-1.2-3.2-3-3.8-5.1C10.1,4.2,10,4,10.1,3.9z"/>
		<path class="st1" d="M21.2,3.6c0.2-0.1,0.5,0,0.7,0.2C22,4,22,4.2,21.9,4.4c-0.5,2-1.8,3.8-3.5,5c-0.4,0.3-0.8,0.5-1.3,0.7
			c0-0.4,0-0.8,0-1.2C18.7,8,20,6.5,20.6,4.8c0.1-0.3,0.2-0.7,0.3-1C21,3.7,21.1,3.6,21.2,3.6z"/>
		<path class="st1" d="M14.9,10.9c0.2-0.1,0.5-0.2,0.7-0.2c-0.7,0.4-1,1.2-1.2,2c-0.2,1.1-0.1,2.2,0.5,3.2c0.2,0.4,0.7,0.8,1.2,0.7
			c0.5-0.1,0.8-0.5,1.1-1c0.5-1,0.5-2.1,0.3-3.1c-0.2-0.7-0.5-1.4-1.1-1.8c0.2,0,0.5,0.1,0.7,0.2c0.7,0.4,1.2,1.1,1.5,1.8
			c0.6,1.2,0.7,2.6,0.6,3.9c-0.1,1.1-0.4,2.2-1.1,3.1c-0.4,0.6-1,1.1-1.8,1.2c-0.7,0.1-1.4-0.1-1.9-0.6c-0.8-0.6-1.2-1.6-1.5-2.5
			c-0.4-1.5-0.4-3.1,0.2-4.6C13.5,12.3,14.1,11.4,14.9,10.9z"/>
	</g>
	<g>
		<path class="st2" d="M14.9,8.4c0.7,0,1.4,0,2.2,0c0,0.2,0,0.3,0,0.5c0,0.4,0,0.8,0,1.2c0,0.3,0,0.5,0,0.8
			c-0.2-0.1-0.5-0.2-0.7-0.2c-0.2-0.1-0.5-0.1-0.8,0c-0.2,0-0.5,0.1-0.7,0.2c0-0.3,0-0.5,0-0.8c0-0.4,0-0.8,0-1.2
			C14.9,8.7,14.9,8.6,14.9,8.4z"/>
	</g>
	<g>
		<path class="st3" d="M15.6,10.6c0.2-0.1,0.5-0.1,0.8,0c0.7,0.4,1,1.1,1.1,1.8c0.2,1,0.2,2.2-0.3,3.1c-0.2,0.4-0.6,0.9-1.1,1
			c-0.5,0.1-1-0.3-1.2-0.7c-0.6-1-0.6-2.1-0.5-3.2C14.6,11.9,14.9,11,15.6,10.6z"/>
	</g>
	<g>
		<path class="st4" d="M14.9,24.7c0.7,0,1.4,0,2.2,0c0,1.4,0,2.9,0,4.3c-0.7,0-1.4,0-2.2,0C14.9,27.6,14.9,26.1,14.9,24.7z"/>
	</g>
	<g>
		<path class="st5" d="M11,29.1c0.1,0,0.2-0.1,0.3-0.1c1.2,0,2.4,0,3.7,0c0.7,0,1.4,0,2.2,0c1.3,0,2.5,0,3.8,0
			c1.1,0.5,2.2,1.1,3.3,1.6c0,0.4,0,0.7,0,1.1c-5.4,0-10.8,0-16.3,0c0-0.4,0-0.7,0-1.1C8.9,30.1,10,29.6,11,29.1z"/>
	</g>
</g>
</svg>
