<?xml version="1.0" encoding="utf-8"?>
<!-- Generator: Adobe Illustrator 19.2.1, SVG Export Plug-In . SVG Version: 6.00 Build 0)  -->
<svg version="1.1" id="Layer_1" xmlns="http://www.w3.org/2000/svg" xmlns:xlink="http://www.w3.org/1999/xlink" x="0px" y="0px"
	 viewBox="0 0 32 32" style="enable-background:new 0 0 32 32;" xml:space="preserve">
<style type="text/css">
	.st0{fill:#010202;}
	.st1{fill:#EB5B28;}
	.st2{fill:#1B1B1B;}
	.st3{fill:#E6E6E6;}
	.st4{fill:#F28F34;}
</style>
<g>
	<g>
		<g>
			<path class="st0" d="M4.5,2.8c2.3-1.7,5.4-2.4,8.2-1.9c3.1,0.5,5.9,2.5,7.5,5.2c0.5,0.8,0.8,1.6,1.1,2.5c1.4,0,2.9,0.3,4.2,1
				c1.6,0.8,3,2,4,3.5c1,1.5,1.5,3.4,1.6,5.2v0.3c0,1.2-0.3,2.5-0.8,3.6c-1,2.4-3,4.4-5.5,5.3c-0.7,0.3-1.3,0.4-2,0.5
				c-0.1,0-0.3,0.1-0.4,0.2c-1.1,0.9-2.3,1.6-3.7,2.1c-1.3,0.5-2.7,0.8-4,0.9c-1.1,0.1-2.3,0.1-3.4,0c-2.2-0.1-4.3-0.8-6.2-1.9
				c-0.9-0.5-1.7-1.2-2.5-1.8c-0.3-0.2-0.5-0.4-0.7-0.7c-0.3-0.5-0.3-1.1-0.1-1.6C2,25,2.2,24.8,2.5,24.6c0.9-0.8,1.8-1.7,2.8-2.3
				C5.7,22,6,21.7,6.4,21.5c-2-0.9-3.7-2.4-4.9-4.3c-1-1.7-1.5-3.7-1.6-5.6v-0.2c0-0.5,0-0.9,0.1-1.4C0.5,7.1,2.2,4.5,4.5,2.8z
				 M10.7,1.7c0.1,1.2,0.2,2.4,0.6,3.5c0.4,1.2,1.1,2.3,1.9,3.2c1.4-1.4,2.8-2.8,4.2-4.2c-0.8-0.7-1.8-1.3-2.8-1.8
				C13.4,2,12.1,1.7,10.7,1.7z M4.3,4.3c2.2,2.2,4.4,4.4,6.6,6.6c0.5-0.5,0.9-0.9,1.4-1.4c0.1-0.1,0.2-0.2,0.3-0.3
				C12.4,9,12.2,8.8,12,8.6c-0.9-1.1-1.5-2.4-1.9-3.7c-0.3-1-0.4-2-0.5-3.1C7.7,2.1,5.8,2.9,4.3,4.3z M14,9.2c0.5,0.4,1,0.8,1.5,1.1
				c1.4-1,3-1.6,4.7-1.8c-0.2-0.5-0.3-0.9-0.6-1.3c-0.4-0.8-0.9-1.5-1.5-2.2C16.8,6.4,15.4,7.8,14,9.2z M1.1,10.4c1,0.1,2,0.2,3,0.4
				c1.6,0.4,3.1,1.3,4.4,2.4c0.5-0.5,1.1-1.1,1.6-1.6C8,9.4,5.8,7.2,3.6,5C2.2,6.5,1.4,8.4,1.1,10.4z M20.2,9.6
				c-0.4,0.1-0.9,0.1-1.2,0.3c-0.1,0.1-0.2,0.3,0,0.5c0.7,0.5,1.5,1,2.2,1.6c0.1,0,0.2,0.1,0.3,0.1c0.8-0.6,1.6-1.1,2.4-1.7
				c-0.1-0.1-0.1-0.3-0.2-0.4C22.5,9.5,21.3,9.5,20.2,9.6z M11.6,11.6c0.5,0.5,0.9,0.9,1.4,1.4c0.2-0.3,0.4-0.6,0.7-0.9
				c0.3-0.4,0.7-0.7,1-1.1c-0.5-0.3-1-0.7-1.4-1.1C12.7,10.5,12.2,11,11.6,11.6z M14.3,13c0.3,0.2,0.6,0.2,0.7,0.5
				c0.3,0.8,0.6,1.5,0.9,2.3c0,0.1,0.1,0.1,0.2,0.1c0.7,0.3,1.3,0.5,2,0.8c0.9-0.6,1.8-1.2,2.6-1.8c0-0.7,0-1.4,0-2
				c-1-0.7-1.9-1.3-2.9-2c-0.2-0.1-0.3-0.4-0.2-0.6C16.3,10.9,15.2,11.8,14.3,13z M24.9,10.3c0.1,0.2-0.1,0.5-0.3,0.6
				c-0.9,0.7-1.9,1.3-2.8,2c0,0.7,0,1.4,0,2c0.9,0.6,1.7,1.1,2.6,1.7c0.5-0.3,1.1-0.5,1.6-0.8c0.3-1,0.6-2,0.9-3.1
				c0.1-0.2,0.1-0.3,0.2-0.5c0.1-0.1,0.3-0.2,0.4-0.2c-0.1-0.1-0.3-0.3-0.4-0.4C26.4,11.1,25.7,10.7,24.9,10.3z M1.1,11.4
				c0,0.7,0.1,1.5,0.2,2.2c0.3,1.7,1.2,3.3,2.3,4.5C5,16.8,6.4,15.4,7.8,14c-0.9-0.8-2-1.5-3.2-1.9C3.5,11.6,2.3,11.5,1.1,11.4z
				 M9.2,14c0.6,0.7,1.1,1.4,1.5,2.2c0.3,0.5,0.5,1,0.7,1.5c0.1-0.5,0.1-0.9,0.2-1.4c0.2-0.8,0.5-1.6,0.8-2.4
				c-0.5-0.5-1.1-1.1-1.6-1.6C10.3,12.9,9.8,13.4,9.2,14z M27.9,13.1c-0.3,1-0.6,1.9-0.8,2.9c0.8,0.6,1.7,1.1,2.5,1.7
				c0.1-0.1,0.3-0.1,0.4-0.2c-0.1-1.6-0.7-3.1-1.6-4.4C28.2,13.1,28,13.1,27.9,13.1z M13.3,14.7c-0.5,1-0.7,2.2-0.8,3.3
				c0.1,0.1,0.3,0.2,0.4,0.2c0.6-0.6,1.3-1.3,1.9-1.9c0.1-0.1,0.2-0.1,0.1-0.2c-0.2-0.6-0.5-1.2-0.7-1.9c-0.1-0.2-0.3-0.2-0.4-0.3
				C13.5,14.1,13.4,14.4,13.3,14.7z M4.3,18.9c0.4,0.3,0.7,0.6,1.1,0.9c0.7,0.5,1.5,0.8,2.3,1.1c1-0.4,2.1-0.7,3.2-0.9
				c-0.2-2-1.1-3.9-2.4-5.3C7.1,16.1,5.7,17.5,4.3,18.9z M19,17.4c-0.1,0-0.1,0.1-0.2,0.2c0,0.2,0.1,0.4,0.1,0.5
				c0.2,0.7,0.4,1.4,0.6,2.1c0,0.1,0,0.2,0.2,0.2c1,0,2,0,3,0c0.1,0,0.2,0,0.2-0.1c0.3-0.9,0.5-1.8,0.8-2.8
				c-0.1-0.1-0.3-0.2-0.4-0.3c-0.7-0.5-1.4-0.9-2.1-1.4C20.5,16.3,19.7,16.9,19,17.4z M13.3,19.2c-0.2,0.2-0.6,0.1-0.8,0
				c0,0.2,0.1,0.5,0.1,0.7c2.1-0.1,4.2,0.4,6.1,1.2c-0.3-1.1-0.6-2.2-1-3.4c0-0.1-0.1-0.1-0.2-0.1c-0.6-0.2-1.3-0.5-1.9-0.7
				C14.9,17.7,14.1,18.5,13.3,19.2z M24.8,17.7c-0.3,1-0.6,2-0.9,3c0,0.1,0,0.1,0.1,0.2c0.4,0.4,0.7,0.7,1.1,1.1c1.2,0,2.3,0,3.5,0
				c0.3,0,0.4,0.2,0.5,0.4c0.2-0.4,0.4-0.8,0.5-1.2c0.3-0.8,0.4-1.7,0.5-2.5c-0.2,0.1-0.5,0.3-0.8,0.1c-1-0.6-1.9-1.3-2.9-1.9
				C25.9,17.1,25.3,17.4,24.8,17.7z M12.5,20.9c-2.5,0.1-5,1-7.1,2.5c-0.9,0.7-1.7,1.4-2.5,2.2c-0.3,0.2-0.3,0.7,0,0.9
				c1,0.8,2,1.6,3.2,2.2c1.4,0.7,2.9,1.2,4.4,1.5c1.1,0.2,2.3,0.1,3.4,0.1c1.9,0,3.8-0.5,5.5-1.3c1.4-0.6,2.5-1.6,3.7-2.5
				c0.2-0.1,0.3-0.3,0.3-0.5c0-0.2-0.2-0.4-0.3-0.5c-0.8-0.7-1.6-1.5-2.5-2.1C18.1,21.7,15.3,20.8,12.5,20.9z M19.4,21.4
				c0.4,0.2,0.8,0.4,1.1,0.7c1,0.7,1.9,1.5,2.8,2.3c0.3-0.6,0.6-1.2,0.9-1.9c-0.4-0.4-0.8-0.7-1.1-1.1
				C21.9,21.4,20.6,21.5,19.4,21.4z M25.1,23.2c-0.3,0.7-0.7,1.4-1,2.1c0.1,0.2,0.2,0.5,0.2,0.7c0,0.2-0.1,0.5-0.1,0.7
				c1.6-0.5,3-1.5,4-2.8c0.1-0.1,0.2-0.2,0.2-0.4c-0.1-0.2-0.1-0.3-0.2-0.4c-1,0-1.9,0-2.9,0C25.2,23,25.2,23.1,25.1,23.2z"/>
		</g>
		<path class="st0" d="M7.9,24.2c0.2-0.2,0.6-0.2,0.8,0c0.2,0.2,0.1,0.6,0.1,0.9c0.3,0,0.7,0,1,0c0-0.3-0.1-0.7,0.2-0.9
			c0.2-0.2,0.7-0.2,0.8,0.1c0.1,0.2,0.1,0.5,0.1,0.8c0.3,0,0.7,0,1,0c0-0.3-0.1-0.6,0.1-0.8c0.2-0.3,0.6-0.3,0.8-0.1
			c0.2,0.2,0.1,0.6,0.1,0.9c0.3,0,0.7,0,1,0c0-0.3-0.1-0.6,0.1-0.8c0.2-0.3,0.6-0.3,0.8-0.1c0.2,0.2,0.1,0.6,0.1,0.9
			c0.3,0,0.7,0,1,0c0-0.3,0-0.5,0.1-0.8c0.1-0.3,0.6-0.4,0.8-0.1c0.2,0.2,0.1,0.6,0.2,0.9c0.3,0,0.7-0.1,0.9,0.2
			c0.2,0.2,0.2,0.7-0.2,0.8c-0.2,0.1-0.5,0-0.7,0.1c0,0.3,0.1,0.7-0.2,0.9c-0.2,0.2-0.7,0.2-0.8-0.1c-0.1-0.2,0-0.5-0.1-0.7
			c-0.3,0-0.7,0-1,0c0,0.3,0.1,0.7-0.2,0.9c-0.2,0.2-0.7,0.2-0.8-0.1c-0.1-0.2,0-0.5-0.1-0.7c-0.3,0-0.7,0-1,0c0,0.2,0,0.5-0.1,0.7
			c-0.1,0.3-0.6,0.4-0.8,0.2c-0.2-0.2-0.1-0.6-0.2-0.9c-0.3,0-0.7,0-1,0c0,0.2,0,0.5-0.1,0.7c-0.1,0.3-0.6,0.4-0.8,0.2
			c-0.2-0.2-0.2-0.6-0.2-0.9c-0.3,0-0.7,0-1,0c0,0.3,0.1,0.6-0.1,0.8c-0.2,0.2-0.6,0.3-0.8,0c-0.2-0.2-0.1-0.6-0.1-0.9
			c-0.3,0-0.6,0.1-0.9-0.1c-0.2-0.2-0.2-0.6,0-0.8c0.2-0.2,0.6-0.1,0.8-0.1C7.8,24.8,7.7,24.4,7.9,24.2z"/>
	</g>
	<g>
		<path class="st1" d="M10.7,1.7c1.4,0,2.7,0.2,4,0.8c1,0.4,2,1,2.8,1.8c-1.4,1.4-2.8,2.8-4.2,4.2c-0.8-0.9-1.5-2-1.9-3.2
			C10.9,4.1,10.8,2.9,10.7,1.7z"/>
		<path class="st1" d="M4.3,4.3c1.5-1.3,3.4-2.2,5.4-2.4c0.1,1,0.2,2.1,0.5,3.1c0.4,1.3,1,2.6,1.9,3.7c0.2,0.2,0.3,0.4,0.5,0.6
			c0,0.1-0.2,0.2-0.3,0.3c-0.5,0.5-0.9,0.9-1.4,1.4C8.7,8.7,6.5,6.5,4.3,4.3z"/>
		<path class="st1" d="M14,9.2c1.4-1.4,2.8-2.8,4.2-4.2c0.6,0.7,1.1,1.4,1.5,2.2c0.2,0.4,0.4,0.9,0.6,1.3c-1.7,0.2-3.3,0.8-4.7,1.8
			C15,10,14.5,9.6,14,9.2z"/>
		<path class="st1" d="M1.1,10.4c0.2-2,1.1-3.9,2.4-5.4c2.2,2.2,4.4,4.4,6.6,6.6c-0.5,0.6-1.1,1.1-1.6,1.6c-1.3-1.1-2.7-2-4.4-2.4
			C3.2,10.5,2.1,10.4,1.1,10.4z"/>
		<path class="st1" d="M11.6,11.6c0.5-0.5,1.1-1.1,1.6-1.6c0.4,0.4,0.9,0.8,1.4,1.1c-0.4,0.3-0.7,0.7-1,1.1
			c-0.2,0.3-0.4,0.6-0.7,0.9C12.5,12.5,12.1,12,11.6,11.6z"/>
		<path class="st1" d="M1.1,11.4c1.2,0.1,2.4,0.2,3.6,0.7c1.2,0.4,2.2,1.1,3.2,1.9c-1.4,1.4-2.8,2.8-4.2,4.2c-1.1-1.3-2-2.9-2.3-4.5
			C1.1,12.9,1.1,12.1,1.1,11.4z"/>
		<path class="st1" d="M9.2,14c0.5-0.5,1.1-1.1,1.6-1.6c0.5,0.5,1.1,1.1,1.6,1.6c-0.4,0.8-0.7,1.5-0.8,2.4c-0.1,0.5-0.1,0.9-0.2,1.4
			c-0.2-0.5-0.4-1-0.7-1.5C10.4,15.4,9.8,14.6,9.2,14z"/>
		<path class="st1" d="M4.3,18.9c1.4-1.4,2.8-2.8,4.2-4.2c1.3,1.5,2.2,3.4,2.4,5.3c-1.1,0.2-2.2,0.5-3.2,0.9
			c-0.8-0.3-1.6-0.6-2.3-1.1C5,19.5,4.7,19.2,4.3,18.9z"/>
	</g>
	<g>
		<path class="st2" d="M20.2,9.6c1.1-0.1,2.3-0.1,3.4,0.2c0.1,0.1,0.1,0.3,0.2,0.4c-0.8,0.6-1.6,1.1-2.4,1.7c-0.1,0.1-0.2,0-0.3-0.1
			c-0.7-0.5-1.5-1-2.2-1.6c-0.2-0.1,0-0.3,0-0.5C19.3,9.7,19.7,9.7,20.2,9.6z"/>
		<path class="st2" d="M27.9,13.1c0.2,0,0.3,0,0.5,0c0.9,1.3,1.5,2.8,1.6,4.4c-0.1,0.1-0.3,0.1-0.4,0.2c-0.9-0.6-1.7-1.1-2.5-1.7
			C27.3,15.1,27.6,14.1,27.9,13.1z"/>
		<path class="st2" d="M13.3,14.7c0.1-0.3,0.3-0.6,0.5-0.8c0.2,0.1,0.4,0.1,0.4,0.3c0.2,0.6,0.5,1.2,0.7,1.9c0.1,0.1,0,0.2-0.1,0.2
			c-0.6,0.6-1.3,1.3-1.9,1.9c-0.1-0.1-0.3-0.1-0.4-0.2C12.5,16.9,12.8,15.7,13.3,14.7z"/>
		<path class="st2" d="M19,17.4c0.8-0.5,1.5-1,2.3-1.5c0.7,0.4,1.4,0.9,2.1,1.4c0.2,0.1,0.3,0.2,0.4,0.3c-0.3,0.9-0.5,1.9-0.8,2.8
			c0,0.1-0.2,0.1-0.2,0.1c-1,0-2,0-3,0c-0.1,0-0.1-0.1-0.2-0.2c-0.2-0.7-0.4-1.4-0.6-2.1c-0.1-0.2-0.1-0.4-0.1-0.5
			C18.8,17.4,18.9,17.4,19,17.4z"/>
		<path class="st2" d="M25.1,23.2c0-0.1,0.1-0.2,0.2-0.2c1,0,1.9,0,2.9,0c0.1,0.1,0.2,0.3,0.2,0.4c-0.1,0.1-0.2,0.3-0.2,0.4
			c-1,1.3-2.4,2.3-4,2.8c0.1-0.2,0.1-0.4,0.1-0.7c0-0.3-0.1-0.5-0.2-0.7C24.4,24.5,24.8,23.9,25.1,23.2z"/>
	</g>
	<g>
		<path class="st3" d="M14.3,13c0.9-1.1,2-2.1,3.3-2.7c0,0.2,0,0.5,0.2,0.6c1,0.7,1.9,1.3,2.9,2c0,0.7,0,1.4,0,2
			c-0.9,0.6-1.8,1.2-2.6,1.8c-0.7-0.3-1.3-0.5-2-0.8c-0.1,0-0.2,0-0.2-0.1c-0.3-0.8-0.6-1.5-0.9-2.3C14.9,13.2,14.6,13.1,14.3,13z"
			/>
		<path class="st3" d="M24.9,10.3c0.8,0.4,1.5,0.8,2.2,1.4c0.1,0.1,0.3,0.3,0.4,0.4c-0.2,0-0.3,0.1-0.4,0.2
			c-0.1,0.1-0.1,0.3-0.2,0.5c-0.3,1-0.6,2-0.9,3.1c-0.5,0.3-1.1,0.5-1.6,0.8c-0.9-0.6-1.7-1.1-2.6-1.7c0-0.7,0-1.4,0-2
			c0.9-0.7,1.9-1.3,2.8-2C24.8,10.8,24.9,10.5,24.9,10.3z"/>
		<path class="st3" d="M13.3,19.2c0.8-0.8,1.6-1.6,2.4-2.4c0.6,0.2,1.3,0.5,1.9,0.7c0.1,0,0.2,0,0.2,0.1c0.3,1.1,0.6,2.2,1,3.4
			c-1.9-0.9-4-1.3-6.1-1.2c0-0.2-0.1-0.5-0.1-0.7C12.7,19.4,13.1,19.5,13.3,19.2z"/>
		<path class="st3" d="M24.8,17.7c0.5-0.3,1.1-0.5,1.6-0.8c1,0.6,1.9,1.3,2.9,1.9c0.2,0.2,0.5,0,0.8-0.1c-0.1,0.8-0.2,1.7-0.5,2.5
			c-0.1,0.4-0.3,0.8-0.5,1.2C29,22.2,28.8,22,28.6,22c-1.2,0-2.3,0-3.5,0c-0.4-0.4-0.7-0.7-1.1-1.1c0-0.1-0.1-0.1-0.1-0.2
			C24.2,19.7,24.5,18.7,24.8,17.7z"/>
		<path class="st3" d="M19.4,21.4c1.3,0,2.5,0,3.8,0c0.4,0.4,0.7,0.8,1.1,1.1c-0.3,0.6-0.6,1.2-0.9,1.9c-0.9-0.8-1.8-1.7-2.8-2.3
			C20.1,21.9,19.7,21.7,19.4,21.4z"/>
	</g>
	<g>
		<g>
			<path class="st4" d="M12.5,20.9c2.8-0.1,5.7,0.7,8,2.4c0.9,0.6,1.7,1.4,2.5,2.1c0.1,0.1,0.3,0.3,0.3,0.5c0,0.2-0.1,0.4-0.3,0.5
				c-1.2,0.9-2.4,1.8-3.7,2.5c-1.7,0.8-3.6,1.3-5.5,1.3c-1.1,0-2.3,0-3.4-0.1c-1.5-0.2-3-0.7-4.4-1.5c-1.1-0.6-2.1-1.4-3.2-2.2
				c-0.3-0.2-0.3-0.6,0-0.9c0.8-0.7,1.6-1.5,2.5-2.2C7.4,21.9,9.9,21,12.5,20.9z M7.9,24.2c-0.2,0.2-0.1,0.6-0.1,0.9
				c-0.3,0-0.6-0.1-0.8,0.1c-0.2,0.2-0.3,0.6,0,0.8c0.2,0.2,0.6,0.1,0.9,0.1c0,0.3-0.1,0.6,0.1,0.9c0.2,0.2,0.6,0.2,0.8,0
				c0.2-0.2,0.1-0.6,0.1-0.8c0.3,0,0.7,0,1,0c0,0.3-0.1,0.7,0.2,0.9c0.2,0.2,0.7,0.2,0.8-0.2c0.1-0.2,0-0.5,0.1-0.7c0.3,0,0.7,0,1,0
				c0,0.3-0.1,0.7,0.2,0.9c0.2,0.2,0.7,0.2,0.8-0.2c0.1-0.2,0-0.5,0.1-0.7c0.3,0,0.7,0,1,0c0,0.2,0,0.5,0.1,0.7
				c0.1,0.3,0.6,0.4,0.8,0.1c0.2-0.2,0.1-0.6,0.2-0.9c0.3,0,0.7,0,1,0c0,0.2,0,0.5,0.1,0.7c0.1,0.3,0.6,0.4,0.8,0.1
				c0.2-0.2,0.1-0.6,0.2-0.9c0.2,0,0.5,0,0.7-0.1c0.3-0.1,0.4-0.6,0.2-0.8c-0.2-0.2-0.6-0.1-0.9-0.2c0-0.3,0.1-0.6-0.2-0.9
				c-0.2-0.2-0.7-0.2-0.8,0.1c-0.1,0.2-0.1,0.5-0.1,0.8c-0.3,0-0.7,0-1,0c0-0.3,0.1-0.6-0.1-0.9c-0.2-0.2-0.6-0.2-0.8,0.1
				c-0.2,0.2-0.1,0.5-0.1,0.8c-0.3,0-0.7,0-1,0c0-0.3,0.1-0.6-0.1-0.9C12.6,24,12.2,24,12,24.3c-0.2,0.2-0.1,0.5-0.1,0.8
				c-0.3,0-0.7,0-1,0c0-0.2,0-0.5-0.1-0.8c-0.1-0.3-0.6-0.4-0.8-0.1c-0.2,0.2-0.1,0.6-0.2,0.9c-0.3,0-0.7,0-1,0
				c0-0.3,0.1-0.6-0.1-0.9C8.5,24,8.1,24,7.9,24.2z"/>
		</g>
	</g>
</g>
</svg>
